<svg xmlns="http://www.w3.org/2000/svg" width="512" height="512" viewBox="0 0 512 512" role="img" aria-labelledby="title desc">
  <title id="title">Nelson Daniel Silva Gutierrez</title>
  <desc id="desc">Architectural N monogram in lime and white on black.</desc>
  <defs>
    <linearGradient id="lime" x1="116" y1="104" x2="398" y2="408" gradientUnits="userSpaceOnUse">
      <stop stop-color="#e8ff78"/>
      <stop offset="0.42" stop-color="#caff28"/>
      <stop offset="1" stop-color="#91e600"/>
    </linearGradient>
    <linearGradient id="steel" x1="118" y1="104" x2="366" y2="398" gradientUnits="userSpaceOnUse">
      <stop stop-color="#ffffff"/>
      <stop offset="1" stop-color="#cbd0d8"/>
    </linearGradient>
    <filter id="glow" x="-30%" y="-30%" width="160%" height="160%">
      <feGaussianBlur stdDeviation="11" result="blur"/>
      <feMerge><feMergeNode in="blur"/><feMergeNode in="SourceGraphic"/></feMerge>
    </filter>
  </defs>

  <rect width="512" height="512" rx="128" fill="#030507"/>
  <rect x="21" y="21" width="470" height="470" rx="109" fill="none" stroke="#ffffff" stroke-opacity=".1" stroke-width="2"/>

  <path d="M102 376V136c0-19 15-34 34-34h16l208 273V136c0-19 15-34 34-34h16v274c0 19-15 34-34 34h-22L152 145v231c0 19-15 34-34 34h-16v-34Z" fill="url(#steel)"/>
  <path d="M151 102h40l219 286v-52L202 102h-51Z" fill="url(#lime)" filter="url(#glow)"/>

  <path d="M76 116V76h40M396 76h40v40M436 396v40h-40M116 436H76v-40" fill="none" stroke="#caff28" stroke-linecap="square" stroke-width="8"/>
  <circle cx="436" cy="76" r="7" fill="#caff28"/>
</svg>
